<?xml version="1.0" encoding="UTF-8"?>
<svg id="Layer_1" data-name="Layer 1" xmlns="http://www.w3.org/2000/svg" viewBox="0 0 3146.6 931.38">
  <defs>
    <style>
      .cls-1 {
        fill: #fff;
      }

      .cls-2 {
        fill: #010101;
      }
    </style>
  </defs>
  <path class="cls-1" d="m3146.6,837.99c0,51.52-40.5,93.4-90.52,93.4H90.7c-50.02,0-90.61-41.69-90.7-93.4V93.49C0,41.88,40.68,0,90.7,0h2965.2c50.02,0,90.61,41.88,90.61,93.49h0v744.59h0l.09-.09Z"/>
  <path class="cls-2" d="m3146.6,837.99c0,51.52-40.5,93.4-90.52,93.4H90.7c-50.02,0-90.61-41.69-90.7-93.4V93.49C0,41.88,40.68,0,90.7,0h2965.2c50.02,0,90.61,41.88,90.61,93.49h0v744.59h0l.09-.09Z"/>
  <path class="cls-1" d="m612.65,460.55c-.73-78.61,64.39-116.81,67.33-118.56-36.83-53.72-93.96-61.07-113.99-61.62-47.95-5.05-94.51,28.65-118.95,28.65s-62.55-28.19-103.15-27.37c-52.17.83-101.03,31.04-127.76,77.88-55.29,95.6-14.05,236.2,38.94,313.43,26.45,37.84,57.41,80.17,97.91,78.61,39.68-1.56,54.47-25.25,102.23-25.25s61.26,25.25,102.6,24.34c42.53-.64,69.35-38.02,94.88-76.22,30.59-43.35,42.89-86.14,43.35-88.34-1.01-.37-82.57-31.5-83.4-125.63h0v.09Zm-78.07-231.05c21.31-26.63,35.91-62.91,31.87-99.64-30.86,1.38-69.44,21.31-91.67,47.39-19.66,22.96-37.2,60.61-32.7,95.97,34.63,2.57,70.26-17.45,92.49-43.71h0Z"/>
  <path class="cls-1" d="m1186.62,746.24h-55.39l-30.31-95.32h-105.44l-28.93,95.32h-53.92l104.52-324.36h64.48l104.98,324.36h0Zm-94.88-135.27l-27.46-84.67c-2.94-8.63-8.36-29.02-16.35-61.07h-1.01c-3.21,13.78-8.36,34.16-15.43,61.07l-27,84.67h87.26Zm363.08,15.43c0,39.76-10.84,71.17-32.42,94.31-19.38,20.57-43.44,30.76-72.1,30.76-31.05,0-53.27-11.02-66.77-33.15v122.69h-51.99v-251.9c0-24.98-.64-50.6-1.93-76.87h45.74l2.94,37.1h1.01c17.36-27.92,43.63-41.88,78.99-41.88,27.55,0,50.7,10.93,69.07,32.69,18.46,21.86,27.65,50.6,27.65,86.23h-.18Zm-53,1.93c0-22.77-5.14-41.51-15.43-56.29-11.21-15.34-26.36-23.05-45.28-23.05-12.86,0-24.43,4.32-34.9,12.76-10.47,8.54-17.27,19.65-20.48,33.43-1.47,5.14-2.2,10.47-2.39,15.8v39.03c0,16.99,5.24,31.32,15.71,43.07,10.47,11.75,23.97,17.54,40.69,17.54,19.56,0,34.81-7.53,45.74-22.59,10.93-15.06,16.44-34.99,16.44-59.69h-.09Zm322.12-1.93c0,39.76-10.84,71.17-32.42,94.31-19.38,20.57-43.44,30.76-72.19,30.76-31.05,0-53.27-11.02-66.77-33.15v122.69h-51.99v-251.9c0-24.98-.64-50.6-1.93-76.87h45.74l2.94,37.1h1.01c17.27-27.92,43.63-41.88,78.99-41.88,27.55,0,50.61,10.93,69.16,32.69,18.37,21.86,27.65,50.6,27.65,86.23h-.18Zm-53,1.93c0-22.77-5.14-41.51-15.43-56.29-11.21-15.34-26.27-23.05-45.19-23.05-12.86,0-24.43,4.32-34.99,12.76-10.47,8.54-17.27,19.65-20.48,33.43-1.56,6.43-2.39,11.66-2.39,15.8v39.03c0,16.99,5.24,31.32,15.61,43.07,10.47,11.66,23.97,17.54,40.69,17.54,19.66,0,34.81-7.53,45.74-22.59,10.93-15.06,16.44-34.99,16.44-59.69h0Zm353.9,26.91c0,27.64-9.64,50.05-28.84,67.41-21.13,18.92-50.61,28.38-88.45,28.38-34.9,0-62.92-6.7-84.04-20.2l12.03-43.35c22.78,13.5,47.85,20.2,75.13,20.2,19.66,0,34.81-4.41,45.74-13.22,10.93-8.82,16.44-20.66,16.44-35.36,0-13.22-4.59-24.24-13.5-33.24-9-9-23.88-17.36-44.82-24.98-56.85-21.21-85.24-52.16-85.24-92.94,0-26.63,10.01-48.4,30.13-65.48,20.12-17.08,46.66-25.53,79.73-25.53,29.48,0,54.19,5.14,73.66,15.43l-13.04,42.34c-18.37-9.92-39.13-14.97-62.37-14.97-18.37,0-32.7,4.5-42.99,13.5-8.63,7.99-13.04,17.82-13.04,29.39,0,12.76,5.05,23.42,14.97,31.77,8.63,7.71,24.34,16.07,47.21,24.98,27.92,11.3,48.5,24.34,61.63,39.4,13.23,15.06,19.84,33.89,19.84,56.2h0l-.18.28Zm172.31-103.86h-57.31v113.6c0,28.93,10.1,43.25,30.31,43.25,9.28,0,16.99-.83,23.15-2.39l1.47,39.49c-10.2,3.86-23.7,5.79-40.41,5.79-20.48,0-36.56-6.24-48.13-18.83-11.57-12.58-17.36-33.52-17.36-63.09v-117.91h-34.17v-39.03h34.17v-42.79l51.07-15.43v58.22h57.31v39.12h-.09Zm258.1,76.13c0,36-10.29,65.48-30.86,88.53-21.49,23.78-50.06,35.63-85.7,35.63s-61.72-11.39-82.11-34.16c-20.39-22.77-30.59-51.52-30.59-86.14s10.56-65.94,31.5-88.99c21.03-23.14,49.42-34.62,84.96-34.62s61.91,11.39,82.76,34.16c19.93,22.04,29.85,50.6,29.85,85.59h.18Zm-53.92,1.19c0-21.4-4.68-39.76-13.96-55.19-10.93-18.55-26.54-27.92-46.75-27.92s-36.83,9.28-47.67,27.92c-9.37,15.34-13.96,34.07-13.96,56.2s4.68,39.86,13.96,55.19c11.21,18.55,26.91,27.92,47.21,27.92s35.45-9.46,46.75-28.28c9.55-15.7,14.33-34.25,14.33-55.74h0l.09-.09Zm222.92-70.53c-5.42-1.01-10.93-1.47-16.44-1.47-18.28,0-32.42,6.89-42.43,20.75-8.63,12.21-12.95,27.55-12.95,46.19v122.69h-51.99v-160.25c0-24.52-.46-49.13-1.56-73.65h45.28l1.93,44.82h1.47c5.51-15.34,14.14-27.83,25.99-37.1,10.84-8.08,23.97-12.49,37.57-12.58,4.78,0,9.09.37,12.95.92v49.59h.09l.09.09Zm232.56,60.15c.09,7.9-.46,15.8-1.93,23.6h-155.96c.55,23.14,8.17,40.87,22.59,52.99,13.13,10.84,30.13,16.35,51.07,16.35,23.15,0,44.18-3.67,63.1-11.02l8.17,36.09c-22.14,9.64-48.31,14.51-78.44,14.51-36.28,0-64.75-10.65-85.51-31.96-20.67-21.31-31.05-49.96-31.05-85.86s9.64-64.65,28.93-88.07c20.21-24.98,47.49-37.47,81.84-37.47s59.24,12.49,76.6,37.47c13.78,19.84,20.67,44.45,20.67,73.56h0l-.09-.18Zm-49.6-13.41c.37-15.43-3.03-28.65-10.1-39.95-9-14.51-22.87-21.67-41.42-21.67-16.99,0-30.86,7.07-41.33,21.21-8.63,11.2-13.78,24.8-15.34,40.41h108.29-.09Z"/>
  <path class="cls-1" d="m980.51,307.18c-14.51,0-27-.73-37.38-1.93v-156.85c14.51-2.3,29.3-3.4,44-3.31,59.61,0,87.07,29.3,87.07,77.14,0,55.1-32.42,84.95-93.69,84.95Zm8.73-141.98c-8.08,0-14.88.46-20.57,1.65v119.2c3.12.46,9,.73,17.27.73,39.04,0,61.36-22.22,61.36-63.82,0-37.1-20.12-57.76-57.96-57.76h-.09Zm170.56,143.17c-33.62,0-55.39-25.07-55.39-59.14s22.23-60.79,57.31-60.79c33.07,0,55.39,23.88,55.39,58.96s-22.96,60.98-57.31,60.98Zm1.01-101.29c-18.46,0-30.31,17.26-30.31,41.42s12.12,40.96,30.03,40.96,30.03-18.46,30.03-41.42-11.85-40.87-29.85-40.87h0l.09-.09Zm247.99-16.35l-36.01,114.98h-23.42l-14.88-49.87c-3.67-12.21-6.8-24.61-9.28-37.1h-.46c-1.93,12.58-5.42,25.07-9.18,37.1l-15.8,49.87h-23.7l-33.8-114.98h26.27l13.04,54.64c3.12,13.04,5.69,25.25,7.81,36.92h.46c1.93-9.64,4.96-21.76,9.46-36.64l16.35-54.92h20.85l15.61,53.72c3.77,13.04,6.89,25.81,9.28,37.84h.73c1.65-11.85,4.32-24.34,7.81-37.84l13.96-53.72h25.07-.18Zm132.45,114.98h-25.53v-66.03c0-20.3-7.81-30.49-23.15-30.49s-25.53,13.04-25.53,28.19v68.42h-25.53v-82.1c0-10.19-.28-21.03-.92-32.88h22.5l1.19,17.72h.73c6.89-12.31,20.85-20.11,36.46-20.11,24.16,0,40.05,18.46,40.05,48.49v68.78h-.28Zm70.45,0h-25.53v-167.69h25.53v167.69Zm93.14,2.57c-33.62,0-55.39-25.07-55.39-59.14s22.23-60.79,57.31-60.79c33.16,0,55.39,23.88,55.39,58.96s-22.96,60.98-57.31,60.98Zm.92-101.29c-18.46,0-30.31,17.26-30.31,41.42s12.12,40.96,30.03,40.96,30.03-18.46,30.03-41.42-11.76-40.87-29.76-40.87h0v-.09Zm157.06,98.63l-1.84-13.22h-.73c-7.81,10.65-19.2,15.8-33.62,15.8-20.57,0-35.27-14.42-35.27-33.79,0-28.38,24.62-43.07,67.23-43.07v-2.11c0-15.15-7.99-22.77-23.88-22.77-11.39,0-21.31,2.85-30.03,8.54l-5.14-16.81c10.65-6.61,23.88-9.92,39.5-9.92,30.03,0,45.19,15.8,45.19,47.57v42.34c0,11.57.46,20.57,1.65,27.46h-23.05Zm-3.49-57.3c-28.38,0-42.62,6.89-42.62,23.14,0,12.03,7.35,18,17.54,18,12.95,0,25.07-9.92,25.07-23.42v-17.72h0Zm148.98,57.3l-1.19-18.46h-.73c-7.35,13.96-19.66,21.03-36.92,21.03-27.74,0-48.31-24.34-48.31-58.68s21.31-61.35,50.33-61.35c15.34,0,26.27,5.14,32.42,15.61h.46v-66.03h25.53v136.74c0,11.11.28,21.58.92,31.04h-22.78l.28.09Zm-3.77-67.59c0-16.07-10.65-29.85-26.91-29.85-18.92,0-30.59,16.81-30.59,40.5s12.03,39.03,30.03,39.03c16.07,0,27.46-13.96,27.46-30.49v-19.19h0Zm187.83,70.25c-33.62,0-55.39-25.07-55.39-59.14s22.23-60.79,57.31-60.79c33.16,0,55.39,23.88,55.39,58.96s-22.87,60.98-57.31,60.98h0Zm.92-101.29c-18.46,0-30.31,17.26-30.31,41.42s12.12,40.96,30.03,40.96,30.03-18.46,30.03-41.42-11.76-40.87-29.85-40.87h0l.09-.09Zm193.8,98.63h-25.53v-66.03c0-20.3-7.81-30.49-23.15-30.49s-25.53,13.04-25.53,28.19v68.42h-25.53v-82.1c0-10.19-.28-21.03-.92-32.88h22.5l1.19,17.72h.73c6.89-12.31,20.85-20.11,36.46-20.11,24.16,0,40.05,18.46,40.05,48.49v68.88h0l-.28-.09Zm171.94-95.78h-28.11v55.84c0,14.23,4.96,21.31,14.88,21.31,4.5,0,8.27-.46,11.39-1.19l.73,19.38c-4.96,1.93-11.57,2.85-19.84,2.85-20.12,0-32.24-11.11-32.24-40.22v-57.95h-16.81v-19.19h16.81v-21.03l25.08-7.53v28.65h28.11v19.19h0v-.09Zm135.29,95.78h-25.53v-65.57c0-20.57-7.81-31.04-23.15-31.04-13.23,0-25.53,9-25.53,27.18v69.33h-25.53v-167.51h25.53v69.06h.46c8.08-12.58,19.66-18.73,34.63-18.73,24.34,0,39.22,18.92,39.22,48.95v68.42h0l-.09-.09Zm138.6-51.34h-76.69c.46,21.76,14.88,34.07,36.19,34.07,11.39,0,21.77-1.93,31.05-5.42l3.95,17.72c-10.93,4.68-23.7,7.07-38.58,7.07-36.01,0-57.31-22.77-57.31-57.95s21.77-61.71,54.38-61.71c29.39,0,47.85,21.76,47.85,54.64.18,3.86-.09,7.81-.83,11.57h0Zm-23.42-18.27c0-17.72-9-30.31-25.26-30.31-14.7,0-26.27,12.76-27.92,30.31h53.27-.09Z"/>
</svg>